<?xml version="1.0" encoding="UTF-8"?>
<svg width="100px" height="100px" viewBox="0 0 100 100" version="1.1" xmlns="http://www.w3.org/2000/svg" xmlns:xlink="http://www.w3.org/1999/xlink">
    <!-- Generator: Sketch 51.2 (57519) - http://www.bohemiancoding.com/sketch -->
    <title>cylinders@1x</title>
    <desc>Created with Sketch.</desc>
    <defs></defs>
    <g id="cylinders" stroke="none" stroke-width="1" fill="none" fill-rule="evenodd">
        <g id="water-heater" transform="translate(16.000000, 0.000000)" fill-rule="nonzero">
            <path d="M59.2166016,87.4064453 L7.97050781,87.4064453 C4.57851563,87.4064453 1.82890625,84.6568359 1.82890625,81.2648437 L1.82890625,7.89082031 C1.82890625,4.49882812 4.57851563,1.74921875 7.97050781,1.74921875 L59.2164063,1.74921875 C62.6083984,1.74921875 65.3580078,4.49882812 65.3580078,7.89082031 L65.3580078,81.2648437 C65.3580078,84.6570313 62.6085937,87.4064453 59.2166016,87.4064453 Z" id="Shape" fill="#E6E6E6"></path>
            <path d="M9.76679688,81.5757813 C8.60292969,81.5757813 7.65957031,80.6324219 7.65957031,79.4685547 L7.65957031,9.68691406 C7.65957031,8.52304688 8.60292969,7.5796875 9.76679688,7.5796875 L57.4205078,7.5796875 C58.584375,7.5796875 59.5277344,8.52304687 59.5277344,9.68691406 L59.5277344,79.46875 C59.5277344,80.6326172 58.584375,81.5759766 57.4205078,81.5759766 L9.76679688,81.5759766 L9.76679688,81.5757813 Z" id="Shape" fill="#F2F2F2"></path>
            <path d="M26.6683594,50.1414062 C30.4927734,46.3169922 36.6933594,46.3169922 40.5195312,50.1429687 C44.3439453,53.9673828 44.3439453,60.1679687 40.5195312,63.9923828 C36.6935547,67.8183594 30.4927734,67.8183594 26.6683594,63.9939453 C22.8423828,60.1679687 22.8423828,53.9671875 26.6683594,50.1414062 Z" id="Shape" fill="#2D6DBF"></path>
            <rect id="Rectangle-path" fill="#F4550F" x="22.9732422" y="72.3644531" width="21.2396484" height="6.65859375"></rect>
            <path d="M40.5195312,50.1429687 C44.3439453,53.9673828 44.3439453,60.1679688 40.5195312,63.9923828 C36.6935547,67.8183594 30.4927734,67.8183594 26.6683594,63.9939453" id="Shape" fill="#8AB2E2"></path>
            <g id="Group" fill="#333333">
                <path d="M59.2166016,0 L7.97050781,0 C3.61953125,0 0.0798828125,3.53984375 0.0798828125,7.890625 L0.0798828125,81.2646484 C0.0798828125,85.615625 3.61972656,89.1552734 7.97050781,89.1552734 L26.7720703,89.1552734 L26.7720703,98.2505859 C26.7720703,99.2166016 27.5552734,99.9998047 28.5212891,99.9998047 C29.4873047,99.9998047 30.2705078,99.2166016 30.2705078,98.2505859 L30.2705078,89.1552734 L36.9169922,89.1552734 L36.9169922,98.2505859 C36.9169922,99.2166016 37.7001953,99.9998047 38.6662109,99.9998047 C39.6322266,99.9998047 40.4154297,99.2166016 40.4154297,98.2505859 L40.4154297,89.1552734 L59.2169922,89.1552734 C63.5679687,89.1552734 67.1078125,85.6154297 67.1078125,81.2646484 L67.1078125,7.890625 C67.1074219,3.53984375 63.5675781,0 59.2166016,0 Z M63.6091797,81.2650391 C63.6091797,83.6871094 61.6386719,85.6574219 59.2166016,85.6574219 L7.97050781,85.6574219 C5.5484375,85.6574219 3.578125,83.6869141 3.578125,81.2650391 L3.578125,7.890625 C3.578125,5.46875 5.5484375,3.49824219 7.97050781,3.49824219 L59.2164062,3.49824219 C61.6384766,3.49824219 63.6089844,5.46875 63.6089844,7.890625 L63.6089844,81.2650391 L63.6091797,81.2650391 Z" id="Shape"></path>
                <path d="M33.5935547,68.6117187 C39.9589844,68.6117187 45.1376953,63.4330078 45.1376953,57.0675781 C45.1376953,50.7021484 39.9589844,45.5234375 33.5935547,45.5234375 C27.228125,45.5234375 22.0494141,50.7021484 22.0494141,57.0675781 C22.0494141,63.4330078 27.228125,68.6117187 33.5935547,68.6117187 Z M33.5935547,49.0220703 C38.0298828,49.0220703 41.6392578,52.6314453 41.6392578,57.0677734 C41.6392578,61.5041016 38.0298828,65.1134766 33.5935547,65.1134766 C29.1572266,65.1134766 25.5478516,61.5041016 25.5478516,57.0677734 C25.5478516,52.6314453 29.1572266,49.0220703 33.5935547,49.0220703 Z" id="Shape"></path>
                <path d="M44.2140625,70.6152344 L22.9730469,70.6152344 C22.0070313,70.6152344 21.2238281,71.3984375 21.2238281,72.3644531 L21.2238281,79.021875 C21.2238281,79.9878906 22.0070313,80.7710938 22.9730469,80.7710938 L44.2140625,80.7710938 C45.1800781,80.7710938 45.9632813,79.9878906 45.9632813,79.021875 L45.9632813,72.3644531 C45.9632812,71.3984375 45.1800781,70.6152344 44.2140625,70.6152344 Z M42.4648438,77.2726562 L24.7220703,77.2726562 L24.7220703,74.1136719 L42.4648438,74.1136719 L42.4648438,77.2726562 Z" id="Shape"></path>
            </g>
            <path d="M33.5935547,58.8167969 C34.5595703,58.8167969 35.3427734,58.0335938 35.3427734,57.0675781 L35.3427734,53.8238281 C35.3427734,52.8578125 34.5595703,52.0746094 33.5935547,52.0746094 C32.6275391,52.0746094 31.8443359,52.8578125 31.8443359,53.8238281 L31.8443359,57.0675781 C31.8443359,58.0335938 32.6275391,58.8167969 33.5935547,58.8167969 Z" id="Shape" fill="#FFFFFF"></path>
        </g>
    </g>
</svg>