<?xml version="1.0" encoding="UTF-8"?>
<svg width="100px" height="100px" viewBox="0 0 100 100" version="1.1" xmlns="http://www.w3.org/2000/svg" xmlns:xlink="http://www.w3.org/1999/xlink">
    <!-- Generator: Sketch 51.2 (57519) - http://www.bohemiancoding.com/sketch -->
    <title>filters@1x</title>
    <desc>Created with Sketch.</desc>
    <defs></defs>
    <g id="filters" stroke="none" stroke-width="1" fill="none" fill-rule="evenodd">
        <g transform="translate(0.000000, 16.000000)" fill-rule="nonzero">
            <path d="M50.0001953,65.4742188 C44.7644531,65.4742188 40.5199219,61.2298828 40.5199219,55.9939453 L40.5199219,21.0357422 L59.4802734,21.0357422 L59.4802734,55.9939453 C59.4802734,61.2296875 55.2357422,65.4742188 50.0001953,65.4742188 Z" id="Shape" fill="#2D6DBF"></path>
            <path d="M46.5128906,55.9939453 L46.5128906,21.0357422 L40.5197266,21.0357422 L40.5197266,55.9939453 C40.5197266,61.2296875 44.7640625,65.4742187 50,65.4742187 C51.0474609,65.4742187 52.0542969,65.3017578 52.9964844,64.9880859 C49.2298828,63.7335937 46.5128906,60.1822266 46.5128906,55.9939453 Z" id="Shape" fill="#8AB2E2"></path>
            <rect id="Rectangle-path" fill="#2D6DBF" x="37.4582031" y="10.3705078" width="25.0830078" height="10.6658203"></rect>
            <rect id="Rectangle-path" fill="#8AB2E2" x="37.4582031" y="10.3705078" width="4.69257813" height="10.6658203"></rect>
            <g id="Group" transform="translate(51.953125, 12.695312)" fill="#FFFFFF">
                <path d="M4.62910156,5.57851563 C3.70976563,5.57851563 2.96425781,4.83320313 2.96425781,3.91367188 L2.96425781,1.80488281 C2.96425781,0.885546875 3.70957031,0.140039063 4.62910156,0.140039063 C5.54863281,0.140039063 6.29394531,0.885351563 6.29394531,1.80488281 L6.29394531,3.91367188 C6.29394531,4.83320313 5.54863281,5.57851563 4.62910156,5.57851563 Z" id="Shape"></path>
                <path d="M1.8546875,44.3111328 C0.935351562,44.3111328 0.18984375,43.5658203 0.18984375,42.6462891 L0.18984375,17.8974609 C0.18984375,16.978125 0.93515625,16.2326172 1.8546875,16.2326172 C2.77402344,16.2326172 3.51953125,16.9779297 3.51953125,17.8974609 L3.51953125,42.6462891 C3.51953125,43.565625 2.77421875,44.3111328 1.8546875,44.3111328 Z" id="Shape"></path>
            </g>
            <path d="M84.628125,65.4742188 C79.3923828,65.4742188 75.1478516,61.2298828 75.1478516,55.9939453 L75.1478516,21.0357422 L94.1082031,21.0357422 L94.1082031,55.9939453 C94.1082031,61.2296875 89.8638672,65.4742188 84.628125,65.4742188 Z" id="Shape" fill="#F4550F"></path>
            <path d="M81.1408203,55.9939453 L81.1408203,21.0357422 L75.1476562,21.0357422 L75.1476562,55.9939453 C75.1476562,61.2296875 79.3919922,65.4742187 84.6279297,65.4742187 C85.6753906,65.4742187 86.6822266,65.3017578 87.6244141,64.9880859 C83.8578125,63.7335937 81.1408203,60.1822266 81.1408203,55.9939453 Z" id="Shape" fill="#D6400B"></path>
            <rect id="Rectangle-path" fill="#F4550F" x="72.0861328" y="10.3705078" width="25.0830078" height="10.6658203"></rect>
            <rect id="Rectangle-path" fill="#D6400B" x="72.0861328" y="10.3705078" width="4.69257813" height="10.6658203"></rect>
            <g id="Group" transform="translate(86.718750, 12.695312)" fill="#FFFFFF">
                <path d="M4.49160156,5.57851563 C3.57226563,5.57851563 2.82675781,4.83320313 2.82675781,3.91367188 L2.82675781,1.80488281 C2.82675781,0.885546875 3.57207031,0.140039063 4.49160156,0.140039063 C5.4109375,0.140039063 6.15644531,0.885351563 6.15644531,1.80488281 L6.15644531,3.91367188 C6.15625,4.83320313 5.4109375,5.57851563 4.49160156,5.57851563 Z" id="Shape"></path>
                <path d="M1.71699219,44.3111328 C0.79765625,44.3111328 0.0521484375,43.5658203 0.0521484375,42.6462891 L0.0521484375,17.8974609 C0.0521484375,16.978125 0.797460937,16.2326172 1.71699219,16.2326172 C2.63632812,16.2326172 3.38183594,16.9779297 3.38183594,17.8974609 L3.38183594,42.6462891 C3.38183594,43.565625 2.63652344,44.3111328 1.71699219,44.3111328 Z" id="Shape"></path>
            </g>
            <path d="M15.3720703,65.4742188 C10.1363281,65.4742188 5.89179687,61.2298828 5.89179687,55.9939453 L5.89179687,21.0357422 L24.8521484,21.0357422 L24.8521484,55.9939453 C24.8521484,61.2296875 20.6078125,65.4742188 15.3720703,65.4742188 Z" id="Shape" fill="#CCCCCC"></path>
            <path d="M11.8849609,55.9939453 L11.8849609,21.0357422 L5.89179687,21.0357422 L5.89179687,55.9939453 C5.89179687,61.2296875 10.1361328,65.4742187 15.3720703,65.4742187 C16.4195312,65.4742187 17.4263672,65.3017578 18.3685547,64.9880859 C14.6019531,63.7335937 11.8849609,60.1822266 11.8849609,55.9939453 Z" id="Shape" fill="#B3B3B3"></path>
            <rect id="Rectangle-path" fill="#CCCCCC" x="2.83066406" y="10.3705078" width="25.0830078" height="10.6658203"></rect>
            <rect id="Rectangle-path" fill="#B3B3B3" x="2.83066406" y="10.3705078" width="4.69257812" height="10.6658203"></rect>
            <g id="Group" transform="translate(17.382812, 12.695312)" fill="#FFFFFF">
                <path d="M4.57148438,5.57851563 C3.65214844,5.57851563 2.90664063,4.83320313 2.90664063,3.91367188 L2.90664063,1.80488281 C2.90664063,0.885546875 3.65195313,0.140039063 4.57148438,0.140039063 C5.49082031,0.140039063 6.23632813,0.885351563 6.23632813,1.80488281 L6.23632813,3.91367188 C6.23632813,4.83320313 5.49101563,5.57851563 4.57148438,5.57851563 Z" id="Shape"></path>
                <path d="M1.79707031,44.3111328 C0.877734375,44.3111328 0.132226562,43.5658203 0.132226562,42.6462891 L0.132226562,17.8974609 C0.132226562,16.978125 0.877539062,16.2326172 1.79707031,16.2326172 C2.71660156,16.2326172 3.46191406,16.9779297 3.46191406,17.8974609 L3.46191406,42.6462891 C3.46191406,43.565625 2.71640625,44.3111328 1.79707031,44.3111328 Z" id="Shape"></path>
                <circle id="Oval" cx="71.0539062" cy="13.3464844" r="1.66484375"></circle>
                <circle id="Oval" cx="36.4259766" cy="13.3464844" r="1.66484375"></circle>
                <circle id="Oval" cx="1.79804688" cy="13.3464844" r="1.66484375"></circle>
            </g>
            <path d="M95.1253906,3.37832031 L98.3351562,3.37832031 C99.2544922,3.37832031 100,2.63300781 100,1.71347656 C100,0.794140625 99.2546875,0.0486328125 98.3351562,0.0486328125 L95.1253906,0.0486328125 C91.7544922,0.0486328125 89.0123047,2.79082031 89.0123047,6.16171875 L89.0123047,8.70546875 L81.0765625,8.70546875 L81.0765625,6.16171875 C81.0765625,2.79082031 78.334375,0.0486328125 74.9634766,0.0486328125 L59.6650391,0.0486328125 C56.2941406,0.0486328125 53.5519531,2.79082031 53.5519531,6.16171875 L53.5519531,8.70546875 L46.4488281,8.70546875 L46.4488281,6.16171875 C46.4488281,2.79082031 43.7066406,0.0486328125 40.3357422,0.0486328125 L25.0373047,0.0486328125 C21.6664063,0.0486328125 18.9242188,2.79082031 18.9242188,6.16171875 L18.9242188,8.70546875 L10.9876953,8.70546875 L10.9876953,6.16171875 C10.9876953,2.79082031 8.24550781,0.0486328125 4.87460937,0.0486328125 L1.66484375,0.0486328125 C0.7453125,0.0486328125 0,0.794140625 0,1.71347656 C0,2.6328125 0.7453125,3.37832031 1.66484375,3.37832031 L4.87460937,3.37832031 C6.40957031,3.37832031 7.65820312,4.62695312 7.65820312,6.16191406 L7.65820312,8.70566406 L2.83066406,8.70566406 C1.91132813,8.70566406 1.16582031,9.45097656 1.16582031,10.3705078 L1.16582031,21.0357422 C1.16582031,21.9550781 1.91113281,22.7005859 2.83066406,22.7005859 L4.22714844,22.7005859 L4.22714844,55.9939453 C4.22714844,62.1392578 9.22675781,67.1388672 15.3722656,67.1388672 C21.5175781,67.1388672 26.5171875,62.1392578 26.5171875,55.9939453 L26.5171875,22.7003906 L27.9138672,22.7003906 C28.8332031,22.7003906 29.5787109,21.9550781 29.5787109,21.0355469 L29.5787109,10.3703125 C29.5787109,9.45097656 28.8333984,8.70546875 27.9138672,8.70546875 L22.2535156,8.70546875 L22.2535156,6.16171875 C22.2535156,4.62675781 23.5021484,3.378125 25.0371094,3.378125 L40.3355469,3.378125 C41.8705078,3.378125 43.1191406,4.62675781 43.1191406,6.16171875 L43.1191406,8.70546875 L37.4587891,8.70546875 C36.5394531,8.70546875 35.7939453,9.45078125 35.7939453,10.3703125 L35.7939453,21.0355469 C35.7939453,21.9548828 36.5392578,22.7003906 37.4587891,22.7003906 L38.8552734,22.7003906 L38.8552734,55.99375 C38.8552734,62.1390625 43.8548828,67.1386719 50.0003906,67.1386719 C56.1457031,67.1386719 61.1453125,62.1390625 61.1453125,55.99375 L61.1453125,22.7003906 L62.5419922,22.7003906 C63.4613281,22.7003906 64.2068359,21.9550781 64.2068359,21.0355469 L64.2068359,10.3703125 C64.2068359,9.45097656 63.4615234,8.70546875 62.5419922,8.70546875 L56.8816406,8.70546875 L56.8816406,6.16171875 C56.8816406,4.62675781 58.1302734,3.378125 59.6652344,3.378125 L74.9636719,3.378125 C76.4986328,3.378125 77.7472656,4.62675781 77.7472656,6.16171875 L77.7472656,8.70546875 L72.0869141,8.70546875 C71.1675781,8.70546875 70.4220703,9.45078125 70.4220703,10.3703125 L70.4220703,21.0355469 C70.4220703,21.9548828 71.1673828,22.7003906 72.0869141,22.7003906 L73.4833984,22.7003906 L73.4833984,55.99375 C73.4833984,62.1390625 78.4830078,67.1386719 84.6285156,67.1386719 C90.7738281,67.1386719 95.7734375,62.1390625 95.7734375,55.99375 L95.7734375,22.7003906 L97.1701172,22.7003906 C98.0894531,22.7003906 98.8349609,21.9550781 98.8349609,21.0355469 L98.8349609,10.3703125 C98.8349609,9.45097656 98.0896484,8.70546875 97.1701172,8.70546875 L92.3417969,8.70546875 L92.3417969,6.16171875 C92.3417969,4.62695312 93.590625,3.37832031 95.1253906,3.37832031 Z M23.1875,55.9939453 C23.1875,60.3033203 19.6816406,63.8091797 15.3722656,63.8091797 C11.0628906,63.8091797 7.55703125,60.3033203 7.55703125,55.9939453 L7.55703125,22.7003906 L23.1876953,22.7003906 L23.1876953,55.99375 L23.1875,55.99375 L23.1875,55.9939453 Z M26.2490234,19.3708984 L4.49550781,19.3708984 L4.49550781,12.0353516 L26.2490234,12.0353516 L26.2490234,19.3708984 Z M57.8154297,55.9939453 C57.8154297,60.3033203 54.3095703,63.8091797 50.0001953,63.8091797 C45.6908203,63.8091797 42.1849609,60.3033203 42.1849609,55.9939453 L42.1849609,22.7003906 L57.815625,22.7003906 L57.815625,55.99375 L57.8154297,55.99375 L57.8154297,55.9939453 Z M60.8769531,19.3708984 L39.1234375,19.3708984 L39.1234375,12.0353516 L60.8769531,12.0353516 L60.8769531,19.3708984 Z M92.4433594,55.9939453 C92.4433594,60.3033203 88.9375,63.8091797 84.628125,63.8091797 C80.31875,63.8091797 76.8128906,60.3033203 76.8128906,55.9939453 L76.8128906,22.7003906 L92.4435547,22.7003906 L92.4435547,55.99375 L92.4433594,55.99375 L92.4433594,55.9939453 Z M95.5048828,19.3708984 L73.7513672,19.3708984 L73.7513672,12.0353516 L95.5048828,12.0353516 L95.5048828,19.3708984 Z" id="Shape" fill="#333333"></path>
        </g>
    </g>
</svg>