<?xml version="1.0" encoding="UTF-8"?>
<svg width="100px" height="100px" viewBox="0 0 100 100" version="1.1" xmlns="http://www.w3.org/2000/svg" xmlns:xlink="http://www.w3.org/1999/xlink">
    <!-- Generator: Sketch 51.2 (57519) - http://www.bohemiancoding.com/sketch -->
    <title>maintenance@1x</title>
    <desc>Created with Sketch.</desc>
    <defs></defs>
    <g id="maintenance" stroke="none" stroke-width="1" fill="none" fill-rule="evenodd">
        <g id="plunger" fill-rule="nonzero">
            <path d="M12.4613281,3.79375 L49.5589844,42.6933594 L42.4789063,49.8105469 L3.78496094,12.5183594 C1.30195313,10.1238281 1.25898438,6.14746094 3.69140625,3.70253906 C4.89121094,2.49648438 6.46230469,1.89472656 8.03339844,1.89472656 C9.64492188,1.89453125 11.2564453,2.52929688 12.4613281,3.79375 Z" id="Shape" fill="#E6E6E6"></path>
            <path d="M96.9013672,51.7353516 C97.7046875,52.5404297 98.10625,53.5992188 98.10625,54.6578125 C98.10625,55.7166016 97.7046875,56.7755859 96.9013672,57.5802734 L57.290625,97.3988281 C55.6841797,99.0136719 53.0800781,99.0136719 51.4734375,97.3988281 C50.6701172,96.5912109 50.2685547,95.5324219 50.2685547,94.4763672 C50.2685547,93.4175781 50.6701172,92.3585938 51.4734375,91.5513672 L51.8902344,91.1347656 L51.8902344,91.1322266 L90.6675781,52.1513672 L91.084375,51.7347656 C92.6908203,50.1203125 95.2949219,50.1203125 96.9013672,51.7353516 Z" id="Shape" fill="#2D6DBF"></path>
            <path d="M90.6675781,52.1515625 L51.8902344,91.1324219 C43.8351563,83.0351562 41.8398438,71.1595703 45.9013672,61.1884766 C46.7449219,59.1189453 46.2777344,56.7449219 44.7041016,55.1630859 L40.9304688,51.3669922 L42.4789063,49.8105469 L42.5320313,49.8613281 L49.6121094,42.7466797 L49.5589844,42.6933594 L51.1099609,41.134375 L54.8861328,44.9302734 C56.4572266,46.5097656 58.8189453,46.9792969 60.8775391,46.13125 C70.7964844,42.0507812 82.6150391,44.0542969 90.6675781,52.1515625 Z" id="Shape" fill="#2D6DBF"></path>
            <g id="Group" transform="translate(40.820312, 46.289062)">
                <polygon id="Shape" fill="#2BBFA3" points="4.05761719 1.22636719 5.18613281 0.08046875 4.05175781 1.22070312"></polygon>
                <path d="M10.1068359,9.87363281 C9.96933594,8.78515625 8.86015625,7.05332031 7.28359375,5.47402344 L3.54570312,1.72890625 L1.71132813,3.57207031 L1.65820313,3.52128906 L0.109765625,5.07773437 L3.88339844,8.87382812 C5.45703125,10.4558594 5.92421875,12.8298828 5.08066406,14.8992187 C1.01914063,24.8703125 3.01445312,36.7460937 11.0695312,44.8431641 L24.1283203,31.7160156 C16.0787109,23.6431641 10.7699219,15.1117188 10.1068359,9.87363281 Z" id="Shape" fill="#8AB2E2"></path>
            </g>
            <path d="M81.0576172,54.7279297 C80.7597656,54.7279297 80.4578125,54.6574219 80.1761719,54.5091797 C76.9570312,52.8128906 73.2509766,52.0658203 69.6300781,52.3818359 C68.5914063,52.4740234 67.6689453,51.7019531 67.5777344,50.6597656 C67.4867187,49.6175781 68.2576172,48.6986328 69.3001953,48.6074219 C73.640625,48.228125 78.0833984,49.1240234 81.9421875,51.1570313 C82.8679688,51.6447266 83.2228516,52.7904297 82.7351563,53.7162109 C82.3960937,54.3601563 81.7380859,54.7279297 81.0576172,54.7279297 Z M63.2712891,53.9007812 C62.225,53.9007812 61.3755859,53.0525391 61.3755859,52.0064453 C61.3755859,50.9601562 62.2224609,50.1121094 63.26875,50.1121094 L63.2712891,50.1121094 C64.3177734,50.1121094 65.165625,50.9603516 65.165625,52.0064453 C65.1658203,53.0525391 64.3177734,53.9007812 63.2712891,53.9007812 Z" id="Shape" fill="#FFFFFF"></path>
            <path d="M99.9998047,54.3822266 C99.9998047,52.7775391 99.375,51.26875 98.2402344,50.1341797 C96.2007812,48.0947266 93.0492188,47.8328125 90.7216797,49.3443359 C82.3832031,41.9414062 70.5810547,39.8818359 60.1595703,44.1480469 C58.8009766,44.7044922 57.25625,44.3970703 56.2242187,43.3650391 L52.4492188,39.5898437 C51.709375,38.85 50.5097656,38.85 49.7703125,39.5898437 L49.5892578,39.7708984 L13.8291016,2.4734375 C12.3222656,0.901757812 10.2933594,0.0234375 8.11621094,0.0005859375 C5.93847656,-0.0244140625 3.8921875,0.812890625 2.35273437,2.35273437 C0.81328125,3.8921875 -0.0220703125,5.9390625 0.0005859375,8.11640625 C0.0236328125,10.2935547 0.901757812,12.3224609 2.4734375,13.8291016 L39.7712891,49.5888672 L39.5898437,49.7703125 C39.234375,50.1253906 39.0349609,50.6074219 39.0349609,51.1097656 C39.0349609,51.6121094 39.2345703,52.0941406 39.5898437,52.4492187 L43.3650391,56.2244141 C44.396875,57.25625 44.7042969,58.8009766 44.1480469,60.1597656 C39.8818359,70.5802734 41.9412109,82.3818359 49.3427734,90.7203125 C48.7130859,91.6857422 48.3744141,92.8126953 48.3744141,93.9923828 C48.3744141,95.5970703 48.9992188,97.1058594 50.1339844,98.2404297 C51.2685547,99.375 52.7773438,100 54.3820312,100 C55.9867188,100 57.4955078,99.375 58.6300781,98.2404297 L98.2400391,58.6300781 C99.375,57.4953125 99.9998047,55.9869141 99.9998047,54.3822266 Z M5.09550781,11.0941406 C4.26523437,10.2982422 3.80117187,9.2265625 3.78945312,8.07617187 C3.77714844,6.92617187 4.21835937,5.84472656 5.03164062,5.03144531 C5.83417969,4.22890625 6.89746094,3.78867187 8.03027344,3.78867187 C8.04570312,3.78867187 8.06113281,3.78867187 8.0765625,3.78886719 C9.2265625,3.80097656 10.2982422,4.26464844 11.0945312,5.09492187 L46.9097656,42.4505859 L42.4515625,46.9087891 L5.09550781,11.0941406 Z M46.0443359,53.5453125 L43.6429688,51.1441406 C43.7228516,51.0863281 51.0861328,43.7228516 51.1441406,43.6433594 L53.5453125,46.0445312 C55.6597656,48.1591797 58.8199219,48.7912109 61.5953125,47.6546875 C70.5574219,43.9853516 80.6957031,45.6863281 87.9402344,51.9382812 L51.9384766,87.9402344 C45.6863281,80.6960937 43.9855469,70.5576172 47.6548828,61.5953125 C48.7910156,58.8197266 48.1589844,55.6597656 46.0443359,53.5453125 Z M95.5613281,55.9509766 L55.9511719,95.5613281 C55.0861328,96.4263672 53.6783203,96.4263672 52.8132813,95.5613281 C52.3941406,95.1421875 52.1632813,94.5851562 52.1632813,93.9925781 C52.1632813,93.4 52.3941406,92.8427734 52.8132813,92.4238281 L92.4236328,52.8134766 C92.8427734,52.3943359 93.3998047,52.1634766 93.9923828,52.1634766 C94.5849609,52.1634766 95.1421875,52.3943359 95.5611328,52.8134766 C95.9800781,53.2324219 96.2111328,53.7896484 96.2111328,54.3822266 C96.2111328,54.9748047 95.9804687,55.5320312 95.5613281,55.9509766 Z" id="Shape" fill="#333333"></path>
        </g>
    </g>
</svg>